<?xml version="1.0" encoding="UTF-8"?>
<svg id="Layer_2" data-name="Layer 2" xmlns="http://www.w3.org/2000/svg" xmlns:xlink="http://www.w3.org/1999/xlink" viewBox="0 0 436.54 92.92">
  <defs>
    <style>
      .cls-1 {
        fill: url(#linear-gradient-2);
      }

      .cls-2 {
        fill: #1c1c1c;
      }

      .cls-3 {
        fill: url(#linear-gradient);
      }
    </style>
    <linearGradient id="linear-gradient" x1="94.83" y1="6.22" x2="17.08" y2="83.96" gradientUnits="userSpaceOnUse">
      <stop offset="0" stop-color="#03c27c"/>
      <stop offset="1" stop-color="#03724a"/>
    </linearGradient>
    <linearGradient id="linear-gradient-2" x1="94.83" y1="6.22" x2="17.08" y2="83.96" xlink:href="#linear-gradient"/>
  </defs>
  <g id="Layer_1-2" data-name="Layer 1">
    <g>
      <g>
        <path class="cls-3" d="m80.05,71.68c-2.38-.17-4.6.45-6.44,1.62-5.13,3.25-11.18,4.77-17.25,4.77h-1.01c-6.1,0-12.17-1.52-17.33-4.78-1.85-1.17-4.08-1.78-6.46-1.61-.42.03-.83.09-1.23.17.54-.37,1.06-.79,1.54-1.27,1.42-1.42,2.35-3.14,2.8-4.95,1.43-5.79,4.22-11.15,8.43-15.36l1.64-1.64c4.13-4.13,9.35-6.88,15-8.34,4.6-.96,8.15-4.93,8.45-9.71.39-6.17-4.49-11.3-10.58-11.31,0,0-.01,0-.02,0,0,0,0,0-.01,0-.27,0-.53.01-.8.03-.16.01-.33.03-.49.05-.09.01-.18.02-.27.03-.21.03-.42.07-.63.11,0,0,0,0,0,0-1.34.27-2.64.81-3.81,1.6-4.98,2.89-10.55,4.6-16.31,4.6h-2.32c-5.96,0-11.72-1.82-16.83-4.9-1.6-.97-3.48-1.52-5.48-1.52C4.52,19.27-.38,24.41.02,30.6c.34,5.25,4.59,9.53,9.84,9.89,2.38.17,4.6-.45,6.44-1.62,5.13-3.25,11.18-4.77,17.25-4.77h1.01c3.24,0,6.47.43,9.56,1.33-1.56,2.83-3.54,5.43-5.84,7.73l-.72.72c-4.3,4.3-9.65,7.5-15.58,8.82-2.13.48-4.14,1.61-5.7,3.41-3.45,3.97-3.44,10,.04,13.96,2.62,2.98,6.48,4.13,10.05,3.43-2.64,1.8-4.45,4.75-4.66,8.1-.39,6.18,4.51,11.31,10.61,11.31,2,0,3.88-.56,5.48-1.52,5.11-3.08,10.87-4.9,16.83-4.9h2.32c5.96,0,11.72,1.82,16.83,4.9,1.6.97,3.48,1.52,5.48,1.52,6.11,0,11.01-5.15,10.61-11.34-.34-5.25-4.59-9.53-9.84-9.89Z"/>
        <path class="cls-1" d="m109.16,62.31c-.34-5.25-4.59-9.53-9.84-9.89-2.38-.17-4.6.45-6.44,1.62-5.13,3.25-11.18,4.77-17.25,4.77h-1.01c-3.25,0-6.49-.44-9.59-1.33,1.41-2.63,3.18-5.07,5.32-7.21l1.64-1.64c4.22-4.22,9.58-7,15.37-8.44,1.81-.45,3.53-1.38,4.95-2.8,4.31-4.31,4.14-11.41-.5-15.5-2.54-2.24-5.94-3.04-9.11-2.42,2.69-1.79,4.54-4.77,4.75-8.16.39-6.18-4.51-11.31-10.61-11.31-2,0-3.88.56-5.48,1.52-5.11,3.08-10.87,4.9-16.83,4.9h-2.32c-5.96,0-11.72-1.82-16.83-4.9-1.6-.97-3.48-1.52-5.48-1.52-6.11,0-11.01,5.15-10.61,11.34.34,5.25,4.59,9.53,9.84,9.89,2.38.17,4.6-.45,6.44-1.62,5.13-3.25,11.18-4.77,17.25-4.77h1.01c6.1,0,12.17,1.52,17.33,4.78,1.85,1.17,4.08,1.78,6.46,1.61.42-.03.84-.1,1.25-.18-.35.24-.7.49-1.03.77-1.81,1.56-2.95,3.57-3.43,5.7-1.34,5.95-4.56,11.32-8.87,15.63l-.72.72c-4.12,4.12-9.2,7.22-14.83,8.64-2.52.38-4.75,1.67-6.37,3.51-.03.03-.06.06-.08.09,0,0-.01.02-.02.03-.14.16-.27.33-.4.51-.08.1-.15.2-.23.3-.08.11-.14.22-.22.33-.1.16-.21.32-.31.48-.05.08-.09.16-.13.25-.11.19-.21.39-.3.59-.05.11-.09.23-.14.34-.07.17-.15.34-.21.52-.06.16-.1.33-.15.49-.04.14-.09.27-.12.41-.04.16-.07.32-.1.48-.03.15-.07.31-.1.46-.02.11-.03.22-.04.33-.03.22-.06.45-.07.67,0,.01,0,.02,0,.03-.01.18-.02.35-.02.52,0,.2,0,.4,0,.61,0,.01,0,.02,0,.03.09,2.36.95,4.7,2.6,6.57,3.66,4.17,9.74,4.75,14.07,1.72,4.96-2.88,10.52-4.57,16.26-4.57h2.32c5.96,0,11.72,1.82,16.83,4.9,1.6.97,3.48,1.52,5.48,1.52,6.11,0,11.01-5.15,10.61-11.34Z"/>
      </g>
      <g>
        <path class="cls-2" d="m127.12,29.65v-8.73h37.77v8.37l-25.25,33.98h25.62v8.73h-38.42v-8.3l25.25-34.06h-24.96Z"/>
        <path class="cls-2" d="m209.79,72l-3.57-10.19h-20.81l-3.57,10.19h-10.84l18.7-51.08h12.23l18.7,51.08h-10.84Zm-13.97-39.73l-7.35,20.88h14.7l-7.35-20.88Z"/>
        <path class="cls-2" d="m251.78,56.57h-13.1v15.43h-10.48V20.92h23.58c5.58,0,9.65,1.19,12.22,3.57,2.57,2.38,3.86,6.19,3.86,11.42v5.68c0,5.24-1.29,9.05-3.86,11.42-2.57,2.38-6.65,3.57-12.22,3.57Zm-13.1-8.51h11.79c2.38,0,4.12-.53,5.24-1.6,1.12-1.07,1.67-2.77,1.67-5.09v-5.17c0-2.33-.56-4.04-1.67-5.13-1.12-1.09-2.86-1.64-5.24-1.64h-11.79v18.63Z"/>
        <path class="cls-2" d="m319.16,72h-23.87V20.92h23.58c4.85,0,8.55,1.12,11.1,3.35,2.55,2.23,3.82,5.41,3.82,9.53v2.69c0,2.14-.5,3.99-1.49,5.57-1,1.58-2.32,2.73-3.97,3.46,1.94.63,3.44,1.81,4.51,3.53,1.07,1.72,1.6,3.85,1.6,6.37v3.49c0,4.17-1.26,7.4-3.78,9.68-2.52,2.28-6.36,3.42-11.5,3.42Zm-13.39-30.34h11.72c1.84,0,3.3-.44,4.37-1.31,1.07-.87,1.6-2.16,1.6-3.86v-1.89c0-1.7-.53-2.98-1.6-3.86s-2.52-1.31-4.37-1.31h-11.72v12.23Zm12.01,8.22h-12.01v13.61h12.01c1.89,0,3.4-.47,4.51-1.42,1.12-.95,1.67-2.27,1.67-3.97v-2.84c0-1.7-.56-3.02-1.67-3.97-1.12-.95-2.62-1.42-4.51-1.42Z"/>
        <path class="cls-2" d="m370.54,72.58h-8.3c-6.31,0-10.88-1.37-13.72-4.11-2.84-2.74-4.26-7.22-4.26-13.43v-17.1c0-6.26,1.42-10.76,4.26-13.5,2.84-2.74,7.41-4.11,13.72-4.11h8.3c6.31,0,10.88,1.37,13.72,4.11,2.84,2.74,4.26,7.24,4.26,13.5v17.1c0,6.21-1.42,10.69-4.26,13.43-2.84,2.74-7.41,4.11-13.72,4.11Zm-7.21-8.73h6.11c2.96,0,5.13-.68,6.51-2.04,1.38-1.36,2.07-3.66,2.07-6.91v-16.81c0-3.25-.69-5.57-2.07-6.95s-3.55-2.07-6.51-2.07h-6.11c-2.96,0-5.13.69-6.51,2.07s-2.07,3.7-2.07,6.95v16.81c0,3.25.69,5.56,2.07,6.91,1.38,1.36,3.55,2.04,6.51,2.04Z"/>
        <path class="cls-2" d="m394.99,29.65v-8.73h41.55v8.73h-15.57v42.35h-10.41V29.65h-15.57Z"/>
      </g>
    </g>
  </g>
</svg>