<?xml version="1.0" encoding="UTF-8"?>
<svg id="Layer_2" data-name="Layer 2" xmlns="http://www.w3.org/2000/svg" xmlns:xlink="http://www.w3.org/1999/xlink" viewBox="0 0 116.19 99.91">
  <defs>
    <style>
      .cls-1 {
        fill: url(#linear-gradient-2);
      }

      .cls-2 {
        fill: url(#linear-gradient-3);
      }

      .cls-3 {
        fill: url(#linear-gradient);
      }
    </style>
    <linearGradient id="linear-gradient" x1="3.5" y1="59.59" x2="93.42" y2="59.59" gradientUnits="userSpaceOnUse">
      <stop offset="0" stop-color="#03c27c"/>
      <stop offset="1" stop-color="#03724a"/>
    </linearGradient>
    <linearGradient id="linear-gradient-2" x1="0" y1="49.95" x2="116.19" y2="49.95" xlink:href="#linear-gradient"/>
    <linearGradient id="linear-gradient-3" x1="22.77" y1="40.35" x2="112.68" y2="40.35" xlink:href="#linear-gradient"/>
  </defs>
  <g id="Layer_1-2" data-name="Layer 1">
    <g>
      <path class="cls-3" d="m83.55,75.18c-2.38-.17-4.6.45-6.44,1.62-5.13,3.25-11.18,4.77-17.25,4.77h-1.01c-6.1,0-12.17-1.52-17.33-4.78-1.85-1.17-4.08-1.78-6.46-1.61-.42.03-.83.09-1.23.17.54-.37,1.06-.79,1.54-1.27,1.42-1.42,2.35-3.14,2.8-4.95,1.43-5.79,4.22-11.15,8.43-15.36l1.64-1.64c4.13-4.13,9.35-6.88,15-8.34,4.6-.96,8.15-4.93,8.45-9.71.39-6.17-4.49-11.3-10.58-11.31,0,0-.01,0-.02,0,0,0,0,0-.01,0-.27,0-.53.01-.8.03-.16.01-.33.03-.49.05-.09.01-.18.02-.27.03-.21.03-.42.07-.63.11,0,0,0,0,0,0-1.34.27-2.64.81-3.81,1.6-4.98,2.89-10.55,4.6-16.31,4.6h-2.32c-5.96,0-11.72-1.82-16.83-4.9-1.6-.97-3.48-1.52-5.48-1.52-6.11,0-11.01,5.15-10.61,11.34.34,5.25,4.59,9.53,9.84,9.89,2.38.17,4.6-.45,6.44-1.62,5.13-3.25,11.18-4.77,17.25-4.77h1.01c3.24,0,6.47.43,9.56,1.33-1.56,2.83-3.54,5.43-5.84,7.73l-.72.72c-4.3,4.3-9.65,7.5-15.58,8.82-2.13.48-4.14,1.61-5.7,3.41-3.45,3.97-3.44,10,.04,13.96,2.62,2.98,6.48,4.13,10.05,3.43-2.64,1.8-4.45,4.75-4.66,8.1-.39,6.18,4.51,11.31,10.61,11.31,2,0,3.88-.56,5.48-1.52,5.11-3.08,10.87-4.9,16.83-4.9h2.32c5.96,0,11.72,1.82,16.83,4.9,1.6.97,3.48,1.52,5.48,1.52,6.11,0,11.01-5.15,10.61-11.34-.34-5.25-4.59-9.53-9.84-9.89Z"/>
      <path class="cls-1" d="m82.79,99.91c-2.58,0-5.1-.7-7.29-2.02-4.78-2.88-9.97-4.4-15.02-4.4h-2.32c-5.05,0-10.24,1.52-15.02,4.4-2.19,1.32-4.71,2.02-7.29,2.02-3.89,0-7.65-1.62-10.3-4.46-2.7-2.87-4.04-6.63-3.79-10.57.1-1.71.54-3.4,1.29-5.03-2.23-.81-4.24-2.17-5.83-3.97-4.63-5.29-4.65-13.27-.04-18.57,2-2.3,4.62-3.87,7.58-4.53,5.04-1.13,9.84-3.86,13.87-7.88l.71-.71c.92-.92,1.77-1.88,2.54-2.86-1.27-.15-2.54-.22-3.79-.22h-1.01c-5.69,0-11.01,1.46-15.38,4.23-2.26,1.43-4.87,2.19-7.56,2.19-.33,0-.66,0-1-.03C6.11,47,.49,41.34.03,34.32c-.25-3.95,1.1-7.71,3.79-10.59,2.66-2.84,6.42-4.47,10.3-4.47,2.45,0,4.86.64,6.99,1.85-1.05-1.84-1.68-3.9-1.82-6.05-.26-3.95,1.08-7.71,3.78-10.59,2.66-2.84,6.42-4.47,10.32-4.47,2.58,0,5.1.7,7.29,2.02,4.78,2.88,9.97,4.4,15.02,4.4h2.32c5.06,0,10.25-1.52,15.02-4.4,2.19-1.32,4.71-2.02,7.29-2.02,3.89,0,7.65,1.62,10.3,4.46,2.7,2.87,4.04,6.63,3.79,10.57-.11,1.74-.56,3.48-1.32,5.08,1.66.59,3.17,1.49,4.5,2.66,2.96,2.62,4.67,6.23,4.79,10.17.12,3.88-1.38,7.68-4.14,10.43-1.81,1.82-4.09,3.11-6.58,3.72-5.4,1.34-10.15,3.94-13.73,7.52l-1.65,1.64c-.74.74-1.43,1.53-2.06,2.33,1.28.15,2.58.23,3.86.23h1.01c5.69,0,11.01-1.46,15.38-4.23,2.26-1.43,4.87-2.19,7.56-2.19.33,0,.66,0,1,.03,7.01.49,12.64,6.15,13.1,13.17.25,3.96-1.1,7.72-3.79,10.59-2.66,2.84-6.42,4.47-10.3,4.47-2.46,0-4.87-.64-7-1.85,1.06,1.84,1.68,3.9,1.83,6.05.26,3.95-1.08,7.71-3.78,10.59-2.66,2.84-6.42,4.47-10.32,4.47Zm-24.63-7.42h2.32c5.23,0,10.6,1.57,15.54,4.54,2.04,1.23,4.38,1.88,6.77,1.88,3.62,0,7.11-1.51,9.59-4.15,2.51-2.68,3.76-6.18,3.52-9.84-.18-2.69-1.17-5.22-2.85-7.31l-1.52-1.89,2.14,1.13c.54.28,1.08.59,1.62.91,2.04,1.23,4.39,1.89,6.78,1.89,3.61,0,7.1-1.51,9.58-4.15h0c2.51-2.67,3.76-6.17,3.53-9.85-.42-6.52-5.65-11.78-12.17-12.23-2.87-.17-5.6.51-7.96,2-4.53,2.87-10.04,4.39-15.92,4.39h-1.01c-1.62,0-3.25-.12-4.85-.35l-.82-.12.49-.67c.8-1.09,1.7-2.14,2.68-3.12l1.65-1.64c3.71-3.71,8.62-6.4,14.19-7.78,2.32-.57,4.43-1.77,6.12-3.46,2.56-2.56,3.96-6.09,3.84-9.69-.12-3.66-1.7-7.01-4.45-9.45-1.37-1.2-2.95-2.09-4.69-2.64l-.57-.18.28-.53c.84-1.61,1.35-3.41,1.46-5.2.23-3.67-1.02-7.16-3.53-9.83-2.47-2.63-5.96-4.14-9.58-4.14-2.39,0-4.74.65-6.77,1.88-4.93,2.97-10.3,4.54-15.54,4.54h-2.32c-5.23,0-10.6-1.57-15.54-4.54-2.04-1.23-4.38-1.88-6.77-1.88-3.62,0-7.11,1.51-9.59,4.15-2.51,2.68-3.76,6.18-3.52,9.84.18,2.68,1.16,5.21,2.84,7.31l1.56,1.95-2.19-1.2c-.55-.3-1.08-.59-1.6-.91-2.04-1.23-4.39-1.89-6.78-1.89-3.61,0-7.1,1.51-9.58,4.15-2.5,2.68-3.76,6.18-3.53,9.85.42,6.52,5.65,11.78,12.17,12.23,2.87.18,5.6-.51,7.96-2,4.53-2.87,10.04-4.39,15.92-4.39h1.01c1.57,0,3.18.12,4.78.34l.83.12-.5.67c-.93,1.26-1.99,2.49-3.16,3.66l-.71.71c-4.16,4.16-9.12,6.98-14.35,8.15-2.75.62-5.18,2.07-7.04,4.21-4.28,4.93-4.26,12.34.04,17.25,1.6,1.81,3.65,3.14,5.92,3.86l.56.18-.27.53c-.85,1.66-1.33,3.39-1.44,5.15-.23,3.67,1.02,7.16,3.53,9.83,2.47,2.63,5.96,4.14,9.58,4.14,2.39,0,4.74-.65,6.77-1.88,4.94-2.97,10.31-4.54,15.54-4.54Z"/>
      <path class="cls-2" d="m112.66,65.81c-.34-5.25-4.59-9.53-9.84-9.89-2.38-.17-4.6.45-6.44,1.62-5.13,3.25-11.18,4.77-17.25,4.77h-1.01c-3.25,0-6.49-.44-9.59-1.33,1.41-2.63,3.18-5.07,5.32-7.21l1.64-1.64c4.22-4.22,9.58-7,15.37-8.44,1.81-.45,3.53-1.38,4.95-2.8,4.31-4.31,4.14-11.41-.5-15.5-2.54-2.24-5.94-3.04-9.11-2.42,2.69-1.79,4.54-4.77,4.75-8.16.39-6.18-4.51-11.31-10.61-11.31-2,0-3.88.56-5.48,1.52-5.11,3.08-10.87,4.9-16.83,4.9h-2.32c-5.96,0-11.72-1.82-16.83-4.9-1.6-.97-3.48-1.52-5.48-1.52-6.11,0-11.01,5.15-10.61,11.34.34,5.25,4.59,9.53,9.84,9.89,2.38.17,4.6-.45,6.44-1.62,5.13-3.25,11.18-4.77,17.25-4.77h1.01c6.1,0,12.17,1.52,17.33,4.78,1.85,1.17,4.08,1.78,6.46,1.61.42-.03.84-.1,1.25-.18-.35.24-.7.49-1.03.77-1.81,1.56-2.95,3.57-3.43,5.7-1.34,5.95-4.56,11.32-8.87,15.63l-.72.72c-4.12,4.12-9.2,7.22-14.83,8.64-2.52.38-4.75,1.67-6.37,3.51-.03.03-.06.06-.08.09,0,0-.01.02-.02.03-.14.16-.27.33-.4.51-.08.1-.15.2-.23.3-.08.11-.14.22-.22.33-.1.16-.21.32-.31.48-.05.08-.09.16-.13.25-.11.19-.21.39-.3.59-.05.11-.09.23-.14.34-.07.17-.15.34-.21.52-.06.16-.1.33-.15.49-.04.14-.09.27-.12.41-.04.16-.07.32-.1.48-.03.15-.07.31-.1.46-.02.11-.03.22-.04.33-.03.22-.06.45-.07.67,0,.01,0,.02,0,.03-.01.18-.02.35-.02.52,0,.2,0,.4,0,.61,0,.01,0,.02,0,.03.09,2.36.95,4.7,2.6,6.57,3.66,4.17,9.74,4.75,14.07,1.72,4.96-2.88,10.52-4.57,16.26-4.57h2.32c5.96,0,11.72,1.82,16.83,4.9,1.6.97,3.48,1.52,5.48,1.52,6.11,0,11.01-5.15,10.61-11.34Z"/>
    </g>
  </g>
</svg>